<?xml version="1.0" encoding="UTF-8"?>
<!-- Created with Inkscape by Vulphere (http://www.inkscape.org/) -->
<svg width="41.735mm" height="11.414mm" version="1.1" viewBox="0 0 41.735 11.414" xmlns="http://www.w3.org/2000/svg">
<title>Akai Professional logo (red)</title>
 <g transform="translate(-162.24 -70.952)">
  <path d="m199.6 78.511h2.6822v-7.5583h-2.6822z" style="fill:#d7172f"/>
  <g transform="matrix(.35278 0 0 -.35278 190.81 75.546)" style="fill:#d7172f">
   <path d="m0 0 4.79 8.052 4.934-8.052zm-0.136 13.021-12.552-20.032-12.308 9.479 11.422 10.553h-9.248l-8.556-7.87h-3.55v7.87h-7.6v-21.425h7.6v8.227h3.079l10.683-8.227h16.099l2.233 3.785h15.399l2.362-3.785h8.452l-13.619 21.425h-9.896" style="fill:#d7172f"/>
  </g>
  <g transform="matrix(.35278 0 0 -.35278 167.02 75.546)" style="fill:#d7172f">
   <path d="m0 0 4.792 8.052 4.928-8.052zm9.762 13.021h-9.896l-13.424-21.425h8.489l2.234 3.785h15.401l2.36-3.785h8.456l-13.62 21.425" style="fill:#d7172f"/>
  </g>
  <g transform="matrix(.35278 0 0 -.35278 164.18 80.786)" style="fill:#d7172f">
   <path d="m0 0c0-0.406-0.393-0.421-0.393-0.421h-3.308v1.047h3.308s0.393 0 0.393-0.422zm0.133 2.128h-5.642v-6.607h1.783v2.572h3.859c0.846 0 1.533 0.688 1.533 1.534v0.959c0 0.849-0.687 1.542-1.533 1.542" style="fill:#d7172f"/>
  </g>
  <g transform="matrix(.35278 0 0 -.35278 167.72 80.786)" style="fill:#d7172f">
   <path d="m0 0c0-0.406-0.391-0.421-0.391-0.421h-3.301v1.047h3.301s0.391 0 0.391-0.422zm1.525-1.073c0.013 0.023 0.027 0.047 0.039 0.073 7e-3 0.02 0.017 0.038 0.023 0.057 0.076 0.166 0.119 0.351 0.119 0.548v0.974c0 0.319-0.097 0.614-0.263 0.86-0.277 0.412-0.745 0.689-1.278 0.689h-5.63v-6.607h1.784v2.572h2.513l1.594-2.572h1.821l-1.601 2.656c0.381 0.125 0.694 0.395 0.879 0.75" style="fill:#d7172f"/>
  </g>
  <g transform="matrix(.35278 0 0 -.35278 171.43 81.679)" style="fill:#d7172f">
   <path d="m0 0c0-0.238-0.193-0.432-0.429-0.432h-3.255c-0.239 0-0.434 0.194-0.434 0.432v2.738c0 0.236 0.195 0.43 0.434 0.43h3.255c0.236 0 0.429-0.194 0.429-0.43zm0.233 4.658h-4.587c-0.846 0-1.536-0.694-1.536-1.542v-3.495c0-0.848 0.69-1.57 1.536-1.57h4.587c0.846 0 1.535 0.722 1.535 1.57v3.495c0 0.848-0.689 1.542-1.535 1.542" style="fill:#d7172f"/>
  </g>
  <g transform="matrix(.35278 0 0 -.35278 173.08 82.366)" style="fill:#d7172f">
   <path d="m0 0h1.789v2.572h4.931v1.488h-4.931v1.033h5.355v1.514h-7.144v-6.607" style="fill:#d7172f"/>
  </g>
  <g transform="matrix(.35278 0 0 -.35278 176.62 82.366)" style="fill:#d7172f">
   <path d="m0 0h7.15v1.523h-5.368v1.042h4.942v1.486h-4.942v1.049h5.368v1.507h-7.15v-6.607" style="fill:#d7172f"/>
  </g>
  <g transform="matrix(.35278 0 0 -.35278 182.2 80.935)" style="fill:#d7172f">
   <path d="m0 0h-3.688s-0.392 0.018-0.392 0.425v0.204c0 0.42 0.392 0.42 0.392 0.42h4.75v1.5h-5.277c-0.846 0-1.53-0.691-1.53-1.538v-0.96c0-0.821 0.65-1.49 1.463-1.526h3.798s0.391 0 0.391-0.424v-0.204c0-0.405-0.391-0.422-0.391-0.422h-5.033v-1.533h5.517c0.844 0 1.532 0.719 1.532 1.565v0.961c0 0.844-0.688 1.532-1.532 1.532" style="fill:#d7172f"/>
  </g>
  <g transform="matrix(.35278 0 0 -.35278 185.64 80.935)" style="fill:#d7172f">
   <path d="m0 0h-3.674s-0.391 0.018-0.391 0.425v0.204c0 0.42 0.391 0.42 0.391 0.42h4.735v1.5h-5.261c-0.843 0-1.529-0.691-1.529-1.538v-0.96c0-0.821 0.648-1.49 1.463-1.526h3.554s0.619 0 0.619-0.424v-0.204c0-0.405-0.619-0.422-0.619-0.422h-4.788v-1.533h5.5c0.849 0 1.536 0.719 1.536 1.565v0.961c0 0.844-0.687 1.532-1.536 1.532" style="fill:#d7172f"/>
  </g>
  <path d="m187.04 82.366h0.68393v-2.3308h-0.68393z" style="fill:#d7172f"/>
  <g transform="matrix(.35278 0 0 -.35278 190.83 81.679)" style="fill:#d7172f">
   <path d="m0 0c0-0.238-0.193-0.432-0.432-0.432h-3.254c-0.238 0-0.433 0.194-0.433 0.432v2.738c0 0.236 0.195 0.43 0.433 0.43h3.254c0.239 0 0.432-0.194 0.432-0.43zm0.231 4.658h-4.586c-0.849 0-1.534-0.694-1.534-1.542v-3.495c0-0.848 0.685-1.57 1.534-1.57h4.586c0.848 0 1.537 0.722 1.537 1.57v3.495c0 0.848-0.689 1.542-1.537 1.542" style="fill:#d7172f"/>
  </g>
  <g transform="matrix(.35278 0 0 -.35278 194.32 81.557)" style="fill:#d7172f">
   <path d="m0 0-2.733 4.314h-2.473v-6.607h1.829v4.378l2.769-4.378h2.437v6.607h-1.829v-4.314" style="fill:#d7172f"/>
  </g>
  <g transform="matrix(.35278 0 0 -.35278 196.9 81.464)" style="fill:#d7172f">
   <path d="m0 0 1.204 2.672 1.206-2.672zm-0.204 4.049-2.978-6.607h2.028l0.516 1.145h3.685l0.512-1.145h2.03l-2.976 6.607h-2.817" style="fill:#d7172f"/>
  </g>
  <g transform="matrix(.35278 0 0 -.35278 200.36 80.035)" style="fill:#d7172f">
   <path d="m0 0h-1.786v-6.607h6.932v1.516h-5.146v5.091" style="fill:#d7172f"/>
  </g>
  <g transform="matrix(.35278 0 0 -.35278 203.44 71.47)" style="fill:#d7172f">
   <path d="m0 0h-0.343v0.453h0.343c0.227 0 0.319-0.065 0.319-0.216 0-0.158-0.108-0.237-0.319-0.237zm0.326-0.14c0.249 0.089 0.352 0.206 0.352 0.415 0 0.188-0.103 0.352-0.276 0.42-0.097 0.035-0.172 0.045-0.391 0.045h-0.729v-1.677h0.375v0.666h0.256c0.282 0 0.361-0.094 0.374-0.45 0.014-0.134 0.014-0.163 0.048-0.216h0.365c-0.043 0.085-0.052 0.102-0.068 0.277-0.013 0.383-0.057 0.448-0.306 0.52" style="fill:#d7172f"/>
  </g>
  <g transform="matrix(.35278 0 0 -.35278 203.43 71.962)" style="fill:#d7172f">
   <path d="m0 0c-0.688 0-1.251 0.578-1.251 1.283 0 0.697 0.557 1.283 1.239 1.283 0.7 0 1.255-0.567 1.255-1.286 0-0.702-0.56-1.28-1.243-1.28zm0.024 2.821c-0.871 0-1.56-0.679-1.56-1.541 0-0.846 0.689-1.541 1.536-1.541s1.531 0.691 1.531 1.541c0 0.846-0.684 1.541-1.507 1.541" style="fill:#d7172f"/>
  </g>
 </g>
</svg>
