<svg width="531" height="47" viewBox="0 0 531 47" xmlns="http://www.w3.org/2000/svg">
<path d="M519.5 10.2C522.6 13.2 524.1 16.8 524.1 21.1C524.1 25.6 522.6 29.3 519.5 32.3C516.4 35.3 512.6 36.8 508.1 36.8C503.6 36.8 499.8 35.3 496.7 32.4C493.7 29.5 492.2 25.8 492.2 21.4C492.2 16.8 493.7 13.1 496.7 10.2C499.7 7.3 503.6 5.8 508.2 5.8C512.7 5.7 516.5 7.2 519.5 10.2ZM492.3 6.2C488.2 10.2 486.1 15.3 486.1 21.4C486.1 27.4 488.2 32.3 492.3 36.3C496.4 40.3 501.5 42.2 507.7 42.2C514.2 42.2 519.5 40.2 523.8 36.3C528 32.3 530.2 27.4 530.2 21.3C530.2 15.2 528.1 10.2 523.9 6.2C519.7 2.2 514.4 0.199997 508.1 0.199997C501.7 0.199997 496.5 2.2 492.3 6.2ZM464.7 41.7H470.6V0.799997H464.7V41.7ZM430.9 6.3C432.2 6.5 433.5 7 434.9 7.6C436.3 8.3 437.6 9.1 438.7 10.1C441.7 12.9 443.2 16.5 443.2 20.9C443.2 25.4 441.8 29.1 438.9 32C438 32.9 437 33.7 435.9 34.3C434.8 34.9 433.5 35.4 431.8 35.8C430.2 36.2 427.9 36.4 425 36.4H417.5V6H424.8C427.6 6 429.7 6.1 430.9 6.3ZM424.6 41.6C428.2 41.6 430.7 41.5 432 41.3C433.3 41.1 434.7 40.7 436.2 40.1C438.8 39.1 441.2 37.6 443.1 35.7C445.1 33.8 446.6 31.6 447.6 29.1C448.7 26.6 449.2 24 449.2 21.2C449.2 17.4 448.2 13.8 446.3 10.6C444.4 7.4 441.8 4.9 438.6 3.2C435.4 1.5 431 0.699997 425.4 0.699997H411.6V41.6H424.6ZM388.4 24C388.4 27.2 388.1 29.5 387.6 30.8C387.1 32.1 386.3 33.3 385.1 34.3C382.9 36.1 380.1 37 376.6 37C374.2 37 372 36.5 370.2 35.6C368.4 34.7 367.1 33.5 366.2 32C365.3 30.5 364.9 27.8 364.9 24V0.799997H359V24C359 27.3 359.2 29.7 359.7 31.3C360.1 32.8 360.7 34.1 361.4 35.2C362.1 36.3 362.9 37.2 363.9 38.1C367.1 40.9 371.4 42.3 376.7 42.3C381.9 42.3 386.2 40.9 389.4 38.1C390.4 37.3 391.2 36.3 391.9 35.2C392.6 34.1 393.1 32.8 393.6 31.2C394.1 29.6 394.3 27.2 394.3 24.1V0.799997H388.4V24ZM321.3 24.4L327.5 9.5L334.1 24.3L321.3 24.4ZM307.9 41.7H313.9L319 29.6H336.5L342 41.7H348L329.6 0.499997H325.5L307.9 41.7ZM253.7 41.6H277.5V36.4H259.6V23.7H276.4V18.5H259.6V6H276.9V0.799997H253.7V41.6ZM224.8 6.4C226 6.8 227 7.6 227.7 8.6C228.4 9.6 228.7 10.8 228.7 12.1C228.7 13.4 228.4 14.6 227.8 15.6C227.2 16.6 226.3 17.4 225.2 17.9C224.1 18.4 222.1 18.7 219.1 18.7H216.9V5.7H218.7C221.6 5.7 223.6 6 224.8 6.4ZM216.9 41.7V23.9H218.4C220.3 23.9 221.7 24.1 222.5 24.6C223.3 25 224.2 25.8 225.2 26.7C226.2 27.7 227.3 29 228.5 30.7L230.5 33.9L232.3 36.9L233.4 38.5C233.6 38.7 233.7 38.9 233.8 39L235.6 41.7H242.6L240.4 38.8C239.5 37.6 238.4 35.9 237 33.6C234.7 29.9 233 27.3 231.7 25.8C230.5 24.3 229.2 23.1 227.9 22.3C230.1 21.4 231.8 20.1 233 18.4C234.2 16.7 234.8 14.6 234.8 12.2C234.8 8.7 233.6 5.9 231.2 3.9C228.8 1.8 225.5 0.799997 221.3 0.799997H211V41.7H216.9ZM186.9 41.7H192.8V0.799997H186.9V41.7ZM148 41.7H153.9V22.6H169.9V17.4H153.9V6H169.9V0.799997H148.1L148 41.7ZM99.2 5.9H113.2V41.7H119.1V5.9H133.4V0.699997H99.2V5.9ZM78.8 41.7H84.7V0.799997H78.8V41.7ZM58.5 12.2C58.5 14.3 57.9 15.9 56.6 17C55.3 18.1 53.5 18.7 51.1 18.7H44.7V5.9H50.8C55.9 5.9 58.5 8 58.5 12.2ZM44.7 41.7V23.9H49C52.9 23.9 55.8 23.5 57.9 22.7C60 21.9 61.6 20.5 62.8 18.7C64 16.9 64.6 14.8 64.6 12.4C64.6 8.8 63.4 6 61.1 3.9C58.8 1.8 55.7 0.699997 51.8 0.699997H38.8V41.7H44.7ZM18.2 31.6C18.2 33.1 17.6 34.4 16.4 35.4C15.2 36.4 13.7 36.9 11.8 36.9C7.60003 36.9 4.00002 34.9 0.800024 30.9V38.3C4.10002 40.8 7.80002 42 11.8 42C15.3 42 18.2 41 20.4 38.9C22.6 36.9 23.7 34.2 23.7 30.9C23.7 26.3 21.2 22.5 16.2 19.5L11.7 17.1C9.70002 15.9 8.20002 14.8 7.30002 13.7C6.40002 12.6 5.90002 11.5 5.90002 10.3C5.90002 8.9 6.50002 7.8 7.70002 6.9C8.90002 6 10.5 5.6 12.4 5.6C15.8 5.6 19 7 21.9 9.9V3.1C19 1.2 15.9 0.199997 12.5 0.199997C8.90002 0.199997 6.00002 1.2 3.80002 3.2C1.60002 5.2 0.400024 7.8 0.400024 11.1C0.400024 13.2 1.00002 15.1 2.20002 16.8C3.40002 18.5 5.40002 20.1 8.20002 21.8L12.7 24.5C16.4 26.8 18.2 29.1 18.2 31.6Z"/>
</svg>