<svg viewBox="0 0 635 100" id="icon-splice-sounds-logo" xmlns="http://www.w3.org/2000/svg"><path d="M95.62 65.75l7-7a14.53 14.53 0 0012.44 6.86c4.7 0 7.13-2 7.13-4.42s-1.35-3.43-8.48-5.33c-10.19-2.61-16-6.4-16-14.43 0-8.39 7.4-14 17.14-14A20.1 20.1 0 01131.07 35l-7 6.94a11.62 11.62 0 00-9.29-4.87c-3.51 0-6.13 1.44-6.13 3.79s2.71 3.25 8.66 4.87c11.28 3 15.88 7 15.88 14.61 0 9-7.58 15.07-18.05 15.07-9.51-.01-16.45-4.7-19.52-9.66zM187.72 51.4c0 13.45-9.29 24-22.1 24a20.25 20.25 0 01-14.43-6v24h-11.73V28.76h11.73v4.6a20.05 20.05 0 0114.43-5.95c12.81 0 22.1 10.59 22.1 23.99zm-11.64 0c0-7.57-5-13.26-12.36-13.26-7.21 0-12.53 5.69-12.53 13.26s5.32 13.26 12.53 13.26c7.4 0 12.36-5.66 12.36-13.26zM195.56 10.9h11.91v63.15h-11.91zM216.22 16.22A7.16 7.16 0 01223.35 9a7.3 7.3 0 017.3 7.21 7.31 7.31 0 01-7.3 7.22 7.17 7.17 0 01-7.13-7.21zm1.26 12.54h11.91v45.29h-11.91zM237.15 51.4c0-13.71 9.83-24 23.45-24 9.74 0 15.34 4.33 19.49 9.47l-7.22 7.22c-2.62-3.07-5.59-5.78-11.55-5.78-7.57 0-12.54 5.6-12.54 13.08s5 13.08 12.54 13.08c6 0 8.93-2.61 11.55-5.68l7.22 7.21c-4.15 5-9.75 9.38-19.49 9.38-13.6.02-23.45-10.17-23.45-23.98zM328.26 54.92h-34.1c1.26 6.23 5.77 10.47 12.45 10.47s9.74-3.07 12.71-6.59l7.13 6.86c-4.24 5.32-9.92 9.74-20.21 9.74-13.35 0-23.09-10.28-23.09-24.09 0-13.62 9.83-23.81 23.09-23.81 13.63 0 22 10.46 22 22.28zm-33.74-8.75h23c-.81-5.59-5.32-8.84-10.91-8.84a12.26 12.26 0 00-12.09 8.84zM352.64 65.77l4.36-4.46a15.3 15.3 0 0013.75 8c5.64 0 9.37-3 9.37-7.37 0-3.64-2.28-5.73-10.1-8.19-8.47-2.55-15-5.18-15-13.19 0-7.47 6.46-12.47 15.2-12.47a17.82 17.82 0 0114.65 7.55l-4.28 4.28c-2.45-3.46-5.82-5.82-10.46-5.82-5 0-8.56 2.54-8.56 6.28 0 3.91 3.19 4.91 10.56 7.28 10.47 3.27 14.65 7 14.65 14.1 0 8-6.73 13.65-16 13.65-8.04 0-15.05-4-18.14-9.64zM392.5 51.75c0-11.83 8.55-23.66 23.11-23.66s23.12 11.83 23.12 23.66c0 11.65-8.47 23.66-23.12 23.66S392.5 63.4 392.5 51.75zm39.4 0c0-9.74-6.73-17.11-16.29-17.11s-16.2 7.37-16.2 17.11 6.56 17.11 16.2 17.11 16.29-7.37 16.29-17.11zM485.5 74.05h-6.73V68.4a17.07 17.07 0 01-14.11 7c-9.37 0-17-6.64-17-16.74V29.45h6.91V57c0 7.37 5.19 11.92 11.92 11.92 6.19 0 12.11-4.37 12.11-11.92V29.45h6.91zM498.15 29.45h6.74v5.65a17.06 17.06 0 0114.1-7c9.38 0 17 6.64 17 16.74v29.21h-6.92V46.47c0-7.37-5.18-11.92-11.92-11.92-6.18 0-12.1 4.37-12.1 11.92v27.58h-6.92zM591.16 10.34v63.71h-6.92v-7.19a20.76 20.76 0 01-16.92 8.55c-12.83 0-22.48-10.37-22.48-23.66s9.65-23.66 22.48-23.66a20.79 20.79 0 0116.92 8.55v-26.3zm-6.92 41.41c0-9.65-6.91-17.29-16.19-17.29s-16.29 7.64-16.29 17.29 6.91 17.38 16.29 17.38 16.19-7.64 16.19-17.38zM600.44 65.77l4.37-4.46a15.29 15.29 0 0013.74 8c5.65 0 9.38-3 9.38-7.37 0-3.64-2.28-5.73-10.1-8.19-8.47-2.55-15-5.18-15-13.19 0-7.47 6.46-12.47 15.2-12.47a17.82 17.82 0 0114.65 7.55l-4.28 4.28c-2.45-3.46-5.82-5.82-10.46-5.82-5 0-8.56 2.54-8.56 6.28 0 3.91 3.19 4.91 10.56 7.28 10.46 3.27 14.65 7 14.65 14.1 0 8-6.73 13.65-16 13.65-8.04 0-15.05-4-18.15-9.64zM23.68 63.38a1 1 0 00.58-1.62L23.1 60.6a7.14 7.14 0 010-10.1l26.13-26.13A14.28 14.28 0 0029 4.18L6.27 27a21.41 21.41 0 0017.41 36.38M49.23 33.24a21.14 21.14 0 00-2.27.13.94.94 0 00-.58 1.63l1.17 1.17a7.15 7.15 0 010 10.09L19 74.84A14.27 14.27 0 1039.13 95l25.24-25.2a21.42 21.42 0 00-15.14-36.56"/></svg>